<svg width="103" height="92" viewBox="0 0 103 92" fill="none" xmlns="http://www.w3.org/2000/svg">
<path fill-rule="evenodd" clip-rule="evenodd" d="M15.9036 15.4368C6.34226 24.9982 0.970726 37.9663 0.970727 51.4881L0.970703 51.4883V79.8093C0.970703 86.4034 6.31632 91.749 12.9105 91.749H13.3059C19.6816 91.749 24.8502 86.5804 24.8502 80.2047V76.242C24.8502 72.0547 28.2447 68.6603 32.4319 68.6603C36.6192 68.6603 40.0136 72.0547 40.0136 76.242V80.2047C40.0136 86.5804 45.1822 91.749 51.5579 91.749H52.3487C58.7245 91.749 63.8931 86.5804 63.8931 80.2047V76.244C63.8931 72.0557 67.2885 68.6603 71.4768 68.6603C75.6652 68.6603 79.0606 72.0557 79.0606 76.244V80.2047C79.0606 86.5804 84.2291 91.749 90.6049 91.749H91.0003C97.5945 91.749 102.94 86.4034 102.94 79.8092V51.4888C102.94 51.4885 102.94 51.4883 102.94 51.4883H102.939C102.939 51.4883 102.939 51.4882 102.939 51.4881C102.939 37.9662 97.5676 24.9982 88.0062 15.4368C78.4448 5.87544 65.4768 0.503904 51.9549 0.503906C38.4331 0.503908 25.465 5.87544 15.9036 15.4368Z" fill="#629CF4"/>
<circle cx="32.2871" cy="37.2393" r="10" fill="white"/>
<circle cx="71.623" cy="37.2393" r="10" fill="white"/>
<circle cx="28.9004" cy="37.2388" r="5" fill="#222222"/>
<circle cx="68.2363" cy="37.2388" r="5" fill="#222222"/>
</svg>
