<svg width="98" height="94" viewBox="0 0 98 94" fill="none" xmlns="http://www.w3.org/2000/svg">
<path fill-rule="evenodd" clip-rule="evenodd" d="M39.8647 5.54233C41.539 2.14808 44.9955 -0.000976562 48.7803 -0.000976562C52.565 -0.000976562 56.0215 2.14808 57.6958 5.54233L64.9686 20.2856C66.4164 23.2205 69.2159 25.2548 72.4544 25.7256L88.7206 28.0898C92.4648 28.6339 95.5755 31.2562 96.7451 34.8543C97.9148 38.4525 96.9406 42.4026 94.2321 45.0443L82.4589 56.5277C80.1173 58.8116 79.049 62.1013 79.6021 65.3252L82.3808 81.5233C83.0204 85.2527 81.4874 89.0218 78.4264 91.2461C75.3653 93.4704 71.307 93.764 67.9576 92.0037L53.4053 84.3563C50.5098 82.8343 47.0508 82.8343 44.1552 84.3563L29.6029 92.0045C26.2534 93.765 22.195 93.4713 19.1339 91.2469C16.0728 89.0225 14.5399 85.2533 15.1797 81.5238L17.958 65.3252C18.5111 62.1013 17.4428 58.8116 15.1012 56.5277L3.32839 45.0443C0.619906 42.4026 -0.354254 38.4525 0.815398 34.8543C1.98505 31.2562 5.09573 28.6339 8.83985 28.0898L25.1061 25.7256C28.3447 25.2548 31.1441 23.2205 32.5919 20.2856L39.8647 5.54233Z" fill="#EDEDED"/>
</svg>
