<svg width="107" height="113" viewBox="0 0 107 113" fill="none" xmlns="http://www.w3.org/2000/svg">
<path d="M3.11397 36.6884C1.07614 35.8355 0.102856 33.4839 1.09929 31.5123C6.30123 21.2191 14.5779 12.7541 24.8268 7.32483C36.2575 1.2695 49.4341 -0.635076 62.1116 1.93563C74.7891 4.50633 86.1831 11.3933 94.3521 21.4229C102.521 31.4526 106.96 44.0045 106.912 56.94C106.864 69.8754 102.332 82.394 94.0885 92.3627C85.8453 102.331 74.4005 109.133 61.7042 111.61C49.008 114.086 35.8459 112.084 24.4605 105.944C14.2522 100.439 6.03862 91.9124 0.913297 81.5808C-0.0684576 79.6018 0.922269 77.2576 2.96637 76.4198L42.0647 60.3946C45.3621 59.0431 45.3794 54.3796 42.0922 53.0036L3.11397 36.6884Z" fill="#F4CD53"/>
<circle cx="41" cy="25.604" r="10" fill="white"/>
<circle cx="37.6133" cy="25.604" r="5" fill="#222222"/>
</svg>
