<svg width="129" height="129" viewBox="0 0 129 129" fill="none" xmlns="http://www.w3.org/2000/svg">
<g filter="url(#filter0_d_626_634)">
<path fill-rule="evenodd" clip-rule="evenodd" d="M124.348 60.7932C124.348 94.0264 97.4073 120.967 64.1741 120.967C30.9408 120.967 4 94.0264 4 60.7932C4 27.56 30.9408 0.619141 64.1741 0.619141C97.4073 0.619141 124.348 27.56 124.348 60.7932ZM73.69 39.7308C68.4347 34.4755 59.914 34.4755 54.6586 39.7308C49.4033 44.9862 49.4033 53.5069 54.6586 58.7622C59.914 64.0176 68.4347 64.0176 73.69 58.7622C78.9454 53.5069 78.9454 44.9862 73.69 39.7308ZM76.5184 36.9024C69.701 30.085 58.6476 30.085 51.8302 36.9024C45.0127 43.7199 45.0127 54.7732 51.8302 61.5907C58.6476 68.4081 69.701 68.4081 76.5184 61.5907C83.3359 54.7732 83.3359 43.7199 76.5184 36.9024ZM64.1737 81.2434C51.2461 81.2434 39.6077 86.6921 31.3635 95.3787C30.6031 96.1798 30.6362 97.4457 31.4374 98.2061C32.2386 98.9665 33.5045 98.9334 34.2648 98.1322C41.7911 90.2022 52.3962 85.2434 64.1737 85.2434C75.9514 85.2434 86.5567 90.2023 94.0831 98.1272C94.8438 98.9282 96.1097 98.9608 96.9106 98.2002C97.7115 97.4395 97.7442 96.1736 96.9835 95.3727C88.7394 86.692 77.1013 81.2434 64.1737 81.2434Z" fill="#3C90DE"/>
</g>
<defs>
<filter id="filter0_d_626_634" x="0" y="0.619141" width="128.348" height="128.348" filterUnits="userSpaceOnUse" color-interpolation-filters="sRGB">
<feFlood flood-opacity="0" result="BackgroundImageFix"/>
<feColorMatrix in="SourceAlpha" type="matrix" values="0 0 0 0 0 0 0 0 0 0 0 0 0 0 0 0 0 0 127 0" result="hardAlpha"/>
<feOffset dy="4"/>
<feGaussianBlur stdDeviation="2"/>
<feComposite in2="hardAlpha" operator="out"/>
<feColorMatrix type="matrix" values="0 0 0 0 0 0 0 0 0 0 0 0 0 0 0 0 0 0 0.25 0"/>
<feBlend mode="normal" in2="BackgroundImageFix" result="effect1_dropShadow_626_634"/>
<feBlend mode="normal" in="SourceGraphic" in2="effect1_dropShadow_626_634" result="shape"/>
</filter>
</defs>
</svg>
