<svg width="103" height="92" viewBox="0 0 103 92" fill="none" xmlns="http://www.w3.org/2000/svg">
<path fill-rule="evenodd" clip-rule="evenodd" d="M15.138 15.5633C5.57663 25.1247 0.205101 38.0927 0.205102 51.6146L0.205078 51.6148V79.9357C0.205078 86.5299 5.55069 91.8755 12.1448 91.8755H12.5402C18.916 91.8755 24.0846 86.7069 24.0846 80.3311V76.3685C24.0846 72.1812 27.479 68.7868 31.6663 68.7868C35.8535 68.7868 39.248 72.1812 39.248 76.3684V80.3311C39.248 86.7069 44.4165 91.8755 50.7923 91.8755H51.5831C57.9589 91.8755 63.1275 86.7069 63.1275 80.3311V76.3705C63.1275 72.1821 66.5228 68.7868 70.7112 68.7868C74.8996 68.7868 78.2949 72.1821 78.2949 76.3705V80.3311C78.2949 86.7069 83.4635 91.8755 89.8393 91.8755H90.2347C96.8288 91.8755 102.174 86.5299 102.174 79.9357V51.6152C102.174 51.615 102.174 51.6147 102.174 51.6147H102.174C102.174 51.6147 102.173 51.6147 102.173 51.6146C102.173 38.0927 96.8019 25.1247 87.2406 15.5633C77.6792 6.0019 64.7111 0.630369 51.1893 0.630371C37.6674 0.630373 24.6994 6.00191 15.138 15.5633Z" fill="#F46B62"/>
<circle cx="31.5215" cy="37.3652" r="10" fill="white"/>
<circle cx="70.8574" cy="37.3652" r="10" fill="white"/>
<circle cx="28.1348" cy="37.3652" r="5" fill="#222222"/>
<circle cx="67.4707" cy="37.3652" r="5" fill="#222222"/>
</svg>
