<svg fill="none" xmlns="http://www.w3.org/2000/svg">
<circle cx="32.9746" cy="32.484" r="32" fill="#3C90DE"/>
<path fill-rule="evenodd" clip-rule="evenodd" d="M20.7516 25.3532H16.0293C14.9318 25.3532 14.041 26.244 14.041 27.3415V36.786C14.041 37.8836 14.9318 38.7744 16.0293 38.7744H20.7516L28.6631 45.477C29.9555 46.5726 31.9359 45.6539 31.9359 43.9599V20.1676C31.9359 18.4736 29.9536 17.555 28.6631 18.6506L20.7516 25.3532Z" stroke="white" stroke-width="2.5" stroke-linecap="round"/>
<path d="M39.9629 39.973C42.2733 38.5374 43.866 35.551 43.866 32.0734C43.866 28.5958 42.2733 25.6074 39.9629 24.1539" stroke="white" stroke-width="2.5" stroke-linecap="round"/>
<path d="M45.8635 46.1106C49.4583 43.0187 51.8185 37.8889 51.8185 32.069C51.8185 26.2413 49.4544 21.1074 45.8535 18.0176" stroke="white" stroke-width="2.5" stroke-linecap="round"/>
</svg>
