<svg width="98" height="94" viewBox="0 0 98 94" fill="none" xmlns="http://www.w3.org/2000/svg">
<path fill-rule="evenodd" clip-rule="evenodd" d="M40.3608 6.10214C42.0351 2.7079 45.4916 0.558838 49.2763 0.558838C53.0611 0.558838 56.5176 2.7079 58.1919 6.10214L65.4647 20.8455C66.9125 23.7803 69.7119 25.8147 72.9504 26.2854L89.2167 28.6496C92.9609 29.1937 96.0716 31.816 97.2412 35.4142C98.4109 39.0123 97.4367 42.9624 94.7282 45.6041L82.955 57.0875C80.6134 59.3714 79.5451 62.6611 80.0982 65.885L82.8769 82.0832C83.5165 85.8125 81.9835 89.5816 78.9225 91.8059C75.8614 94.0302 71.8031 94.3239 68.4537 92.5635L53.9014 84.9161C51.0058 83.3942 47.5469 83.3942 44.6513 84.9161L30.099 92.5644C26.7495 94.3248 22.6911 94.0311 19.63 91.8067C16.5689 89.5823 15.036 85.8131 15.6758 82.0836L18.4541 65.885C19.0072 62.6611 17.9389 59.3714 15.5973 57.0875L3.82448 45.6041C1.116 42.9624 0.141839 39.0123 1.31149 35.4142C2.48114 31.816 5.59182 29.1937 9.33595 28.6496L25.6022 26.2854C28.8407 25.8147 31.6402 23.7803 33.088 20.8455L40.3608 6.10214Z" fill="#F4CD53"/>
</svg>
