<svg width="98" height="95" viewBox="0 0 98 95" fill="none" xmlns="http://www.w3.org/2000/svg">
<path fill-rule="evenodd" clip-rule="evenodd" d="M40.3608 6.47519C42.0351 3.08095 45.4916 0.931885 49.2763 0.931885C53.0611 0.931885 56.5176 3.08095 58.1919 6.47519L65.4647 21.2185C66.9125 24.1533 69.7119 26.1877 72.9504 26.6584L89.2167 29.0226C92.9609 29.5668 96.0716 32.1891 97.2412 35.7872C98.4109 39.3853 97.4367 43.3355 94.7282 45.9772L82.955 57.4605C80.6134 59.7445 79.5451 63.0341 80.0982 66.258L82.8769 82.4562C83.5165 86.1856 81.9835 89.9547 78.9225 92.179C75.8614 94.4032 71.8031 94.6969 68.4537 92.9365L53.9014 85.2891C51.0058 83.7672 47.5469 83.7672 44.6513 85.2891L30.099 92.9374C26.7495 94.6978 22.6911 94.4041 19.63 92.1798C16.5689 89.9554 15.036 86.1861 15.6758 82.4567L18.4541 66.258C19.0072 63.0341 17.9389 59.7445 15.5973 57.4605L3.82448 45.9772C1.116 43.3355 0.141839 39.3853 1.31149 35.7872C2.48114 32.1891 5.59182 29.5668 9.33595 29.0226L25.6022 26.6584C28.8407 26.1877 31.6402 24.1533 33.088 21.2185L40.3608 6.47519Z" fill="#FFFF00"/>
</svg>
