<svg width="102" height="92" viewBox="0 0 102 92" fill="none" xmlns="http://www.w3.org/2000/svg">
<path fill-rule="evenodd" clip-rule="evenodd" d="M14.9329 15.0853C5.37156 24.6467 2.29844e-05 37.6147 2.41665e-05 51.1365L0 51.1368V79.4577C0 86.0518 5.34561 91.3975 11.9398 91.3975H12.3352C18.7109 91.3975 23.8795 86.2289 23.8795 79.8531V75.8904C23.8795 71.7032 27.274 68.3087 31.4612 68.3087C35.6484 68.3087 39.0429 71.7032 39.0429 75.8904V79.8531C39.0429 86.2289 44.2115 91.3975 50.5872 91.3975H51.378C57.7538 91.3975 62.9224 86.2289 62.9224 79.8531V75.8925C62.9224 71.7041 66.3177 68.3087 70.5061 68.3087C74.6945 68.3087 78.0899 71.7041 78.0899 75.8925V79.8531C78.0899 86.2289 83.2584 91.3974 89.6342 91.3974H90.0296C96.6238 91.3974 101.969 86.0518 101.969 79.4577V51.1372C101.969 51.1369 101.969 51.1367 101.969 51.1367H101.969C101.968 51.1367 101.968 51.1366 101.968 51.1365C101.968 37.6147 96.5969 24.6467 87.0355 15.0853C77.4741 5.52387 64.5061 0.152342 50.9842 0.152344C37.4624 0.152346 24.4943 5.52388 14.9329 15.0853Z" fill="#F4CD53"/>
<circle cx="31.3164" cy="36.8877" r="10" fill="white"/>
<circle cx="70.6523" cy="36.8877" r="10" fill="white"/>
<circle cx="34.6055" cy="36.8877" r="5" fill="#222222"/>
<circle cx="73.9414" cy="36.8877" r="5" fill="#222222"/>
</svg>
