<svg width="41" height="58" viewBox="0 0 41 58" fill="none" xmlns="http://www.w3.org/2000/svg">
<g clip-path="url(#clip0_808_2694)">
<path d="M23.8071 57.3433L29.1258 48.9585C29.1984 48.844 29.3048 48.7547 29.4305 48.703C29.5562 48.6513 29.6949 48.6396 29.8275 48.6697L39.5199 50.9592C39.6374 50.9877 39.7605 50.9832 39.8756 50.9463C39.9907 50.9094 40.0932 50.8415 40.1719 50.7501C40.2507 50.6587 40.3024 50.5474 40.3215 50.4285C40.3406 50.3096 40.3262 50.1878 40.28 50.0765L32.0564 29.9902L14.4141 37.1592L22.6423 57.2408C22.6879 57.3523 22.7634 57.4491 22.8606 57.5206C22.9578 57.5922 23.0729 57.6356 23.1933 57.6462C23.3137 57.6568 23.4347 57.6341 23.543 57.5807C23.6513 57.5273 23.7427 57.4451 23.8071 57.3433Z" fill="#EDEDED"/>
<path d="M26.7518 39.4951L20.9981 53.2299L15.373 39.4951H26.7518Z" fill="#D8D8D8"/>
<path d="M26.2576 37.1589L25.2986 39.488L21.7552 48.1453L21.6101 48.5016L20.3354 51.611L18.0293 57.2404C17.9843 57.3531 17.9087 57.451 17.8111 57.5234C17.7134 57.5958 17.5975 57.6398 17.4762 57.6504C17.355 57.661 17.2331 57.6379 17.1243 57.5836C17.0155 57.5293 16.9239 57.446 16.8598 57.3429L11.5411 48.9581C11.4683 48.8439 11.3618 48.7548 11.2362 48.7031C11.1106 48.6514 10.9721 48.6396 10.8395 48.6693L1.14704 50.9588C1.02973 50.9868 0.906939 50.9819 0.792227 50.9448C0.677514 50.9076 0.575332 50.8396 0.49695 50.7483C0.418568 50.657 0.367031 50.5459 0.348025 50.4273C0.329018 50.3087 0.34328 50.1872 0.389237 50.0761L8.61751 29.9922L26.2576 37.1589Z" fill="#EDEDED"/>
<path d="M34.4692 35.8782C33.6997 36.5607 28.2547 41.2352 20.3352 41.2352C15.1228 41.2403 10.0911 39.3333 6.20117 35.8782L8.61492 29.9902L11.3772 31.1129L11.6274 31.2153L20.3352 34.7509L29.0429 31.2153L29.2932 31.1129L32.0555 29.9902L34.4692 35.8782Z" fill="#D8D8D8"/>
<path d="M20.3362 39.4951C31.1145 39.4951 39.852 30.7942 39.852 20.061C39.852 9.32789 31.1145 0.626953 20.3362 0.626953C9.55786 0.626953 0.820312 9.32789 0.820312 20.061C0.820312 30.7942 9.55786 39.4951 20.3362 39.4951Z" fill="#EDEDED"/>
<path d="M20.3351 37.7668C30.1549 37.7668 38.1154 29.8396 38.1154 20.0609C38.1154 10.2822 30.1549 2.35498 20.3351 2.35498C10.5152 2.35498 2.55469 10.2822 2.55469 20.0609C2.55469 29.8396 10.5152 37.7668 20.3351 37.7668Z" fill="white"/>
<path d="M20.3354 36.6837C29.5545 36.6837 37.0281 29.2414 37.0281 20.0609C37.0281 10.8803 29.5545 3.43799 20.3354 3.43799C11.1162 3.43799 3.64258 10.8803 3.64258 20.0609C3.64258 29.2414 11.1162 36.6837 20.3354 36.6837Z" fill="#EDEDED"/>
<path opacity="0.5" d="M28.7792 5.72528L5.34104 27.365C4.3652 25.3814 3.79658 23.2238 3.66846 21.0185C3.54035 18.8133 3.85532 16.6048 4.59492 14.5223L16.3199 3.92488C20.5499 2.88615 25.0201 3.53209 28.7792 5.72528Z" fill="white"/>
<path opacity="0.5" d="M35.8621 13.9585L13.0508 35.0184C10.7621 33.9076 8.75766 32.2922 7.18945 30.2949L31.8345 8.01465C33.5946 9.6812 34.969 11.7095 35.8621 13.9585Z" fill="white"/>
</g>
<defs>
<clipPath id="clip0_808_2694">
<rect width="40" height="57.0213" fill="white" transform="translate(0.335938 0.626953)"/>
</clipPath>
</defs>
</svg>
