<svg width="99" height="99" viewBox="0 0 99 99" fill="none" xmlns="http://www.w3.org/2000/svg">
<path d="M82.5064 49.5C82.5064 35.7715 74.1147 24.0152 62.2037 19.0459L59.0326 26.6643C67.9658 30.3961 74.25 39.2133 74.25 49.5C74.25 59.8061 67.9658 68.6039 59.0133 72.3357L62.1844 79.9541C74.1146 74.9848 82.5064 63.2285 82.5064 49.5ZM65.9936 49.5C65.9936 42.6357 61.7977 36.7576 55.8422 34.2826L52.6711 41.901C55.6488 43.1385 57.7371 46.0775 57.7371 49.5193C57.7371 52.9418 55.6488 55.8809 52.6711 57.1377L55.8422 64.7561C61.7977 62.2424 65.9936 56.3643 65.9936 49.5ZM68.5459 3.80918L65.3555 11.4275C80.2635 17.6344 90.7436 32.3297 90.7436 49.5C90.7436 66.651 80.2635 81.3656 65.3555 87.5725L68.5266 95.1908C86.4316 87.7271 99 70.0928 99 49.5C99 28.9072 86.4316 11.2729 68.5459 3.80918ZM0 28.8686V70.1121H16.4936L45.3814 99V0L16.4936 28.8686H0Z" fill="#3C90DE"/>
</svg>
